{"title":"Budhia Singh (2016) x264 DvDRip AC3 5.1 ESub -DDR","uid":15913643,"size":1582827412,"categoryP":"video","categoryS":"movies","magnet":"?xt=urn:btih:8fa960a5a15ee5e41c1e7f1e9954d18059f4758a&amp;dn=Budhia+Singh+%282016%29+x264+DvDRip+AC3+5.1+ESub+-DDR&amp;tr=udp%3A%2F%2Ftracker.leechers-paradise.org%3A6969&amp;tr=udp%3A%2F%2Fzer0day.ch%3A1337&amp;tr=udp%3A%2F%2Fopen.demonii.com%3A1337&amp;tr=udp%3A%2F%2Ftracker.coppersurfer.tk%3A6969&amp;tr=udp%3A%2F%2Fexodus.desync.com%3A6969","seeders":77,"leechers":146,"uploader":"SaM","files":3,"time":1475160756,"description":"** Budhia Singh - Born To Run **\r\n\r\n** 2016**\r\n\r\n** 1/3 / DVDrip / x264\r\n\r\nHindi Untouched AC3 5.1 **\r\n\r\n** English Subtitle(s) **\r\n\r\n\r\n\r\n[ SCREENS ]\r\n \nhttps://extraimago.com/image/wUYp \nhttps://extraimago.com/image/wUYY \nhttps://extraimago.com/image/wUYC \nhttps://extraimago.com/image/wUYB \nhttps://extraimago.com/image/wUY4 \nhttps://extraimago.com/image/wUYe \nhttps://extraimago.com/image/wUYZ \nhttps://extraimago.com/image/wUYK \nhttps://extraimago.com/image/wUY5 \nhttps://extraimago.com/image/wUYg \nhttps://extraimago.com/image/wUYX \nhttps://extraimago.com/image/wUYP \nhttps://extraimago.com/image/wUYG \nhttps://extraimago.com/image/wUYr\r\n\r\n[ Info ]\r\n\r\nSource : DVD9 @ DDR\r\nGeneral\r\nFormat : Matroska\r\nFile size : 1.46 GiB\r\nDuration : 1 h 50 min\r\nOverall bit rate : 1 901 kb/s\r\n\r\nVideo\r\nFormat : AVC\r\nFormat/Info : Advanced Video Codec\r\nFormat profile :   \r\nFormat settings, CABAC : Yes\r\nFormat settings, ReFrames : 16 frames\r\nCodec ID : V_MPEG4/ISO/AVC\r\nDuration : 1 h 50 min\r\nBit rate : 1 449 kb/s\r\nWidth : 720 pixels\r\nHeight : 304 pixels\r\nDisplay aspect ratio : 2.35:1\r\nFrame rate mode : Constant\r\nFrame rate : 23.976 (24000/1001) FPS\r\nColor space : YUV\r\nChroma subsampling : 4:2:0\r\nBit depth : 8 bits\r\nScan type : Progressive\r\nBits/(Pixel*Frame) : 0.276\r\nStream size : 1.12 GiB (76%)\r\nColor primaries : BT.601 NTSC\r\nTransfer characteristics : BT.470 System B, BT.470 System G\r\nMatrix coefficients : BT.601\r\n\r\nAudio\r\nFormat : AC-3\r\nFormat/Info : Audio Coding 3\r\nMode extension : CM (complete main)\r\nFormat settings, Endianness : Big\r\nCodec ID : A_AC3\r\nDuration : 1 h 50 min\r\nBit rate mode : Constant\r\nBit rate : 448 kb/s\r\nChannel(s) : 6 channels\r\nChannel positions : Front: L C R, Side: L R, LFE\r\nSampling rate : 48.0 kHz\r\nFrame rate : 31.250 FPS (1536 spf)\r\nCompression mode : Lossy\r\nDelay relative to video : 15 ms\r\nStream size : 353 MiB (24%)\r\nLanguage : Hindi\r\nDefault : Yes\r\nForced : No\r\n\r\n\r\nChapters : YES","torrent":{"xt":"urn:btih:8fa960a5a15ee5e41c1e7f1e9954d18059f4758a","amp;dn":"Budhia+Singh+%282016%29+x264+DvDRip+AC3+5.1+ESub+-DDR","amp;tr":["udp%3A%2F%2Ftracker.leechers-paradise.org%3A6969","udp%3A%2F%2Fzer0day.ch%3A1337","udp%3A%2F%2Fopen.demonii.com%3A1337","udp%3A%2F%2Ftracker.coppersurfer.tk%3A6969","udp%3A%2F%2Fexodus.desync.com%3A6969"],"infoHash":"8fa960a5a15ee5e41c1e7f1e9954d18059f4758a","infoHashBuffer":{"type":"Buffer","data":[143,169,96,165,161,94,229,228,28,30,127,30,153,84,209,128,89,244,117,138]},"announce":[],"urlList":[]}}